<?xml version="1.0" standalone="no"?>
<!DOCTYPE svg PUBLIC "-//W3C//DTD SVG 20010904//EN"
 "http://www.w3.org/TR/2001/REC-SVG-20010904/DTD/svg10.dtd">
<svg version="1.0" xmlns="http://www.w3.org/2000/svg"
 width="960.000000pt" height="960.000000pt" viewBox="0 0 960.000000 960.000000"
 preserveAspectRatio="xMidYMid meet">

<g transform="translate(0.000000,960.000000) scale(0.100000,-0.100000)"
fill="#000000" stroke="none">
<path d="M2555 8892 c-101 -35 -198 -109 -250 -192 -24 -38 -65 -142 -65 -165
0 -13 157 -15 1168 -17 l1167 -3 56 -26 c146 -69 211 -180 226 -385 10 -146
-28 -329 -96 -461 l-21 -43 -795 0 c-437 0 -795 -2 -795 -5 0 -3 343 -414 762
-913 440 -524 788 -948 825 -1004 150 -229 199 -400 174 -608 -21 -172 -86
-318 -192 -434 l-51 -56 -1215 0 -1215 0 6 -37 c21 -114 126 -252 234 -307
118 -60 -35 -56 2372 -56 2428 0 2269 -4 2392 62 115 61 196 155 246 284 l27
69 3 523 3 522 -94 0 -95 0 -6 -34 c-4 -19 -20 -61 -37 -95 -34 -68 -88 -118
-165 -153 -48 -23 -56 -23 -405 -23 -337 0 -358 1 -378 19 -32 29 -29 88 5
115 26 20 39 21 305 21 l279 0 0 75 0 74 -284 3 c-263 3 -285 4 -305 22 -32
29 -29 88 5 115 26 20 39 21 305 21 l279 0 0 75 0 75 -279 0 c-266 0 -279 1
-305 21 -37 29 -37 89 1 119 26 21 33 21 377 18 l351 -3 56 -26 c104 -49 175
-137 194 -241 l7 -38 94 0 94 0 0 580 0 580 -73 0 -74 0 -12 -52 c-23 -100
-95 -188 -190 -232 -44 -20 -63 -21 -405 -24 l-359 -3 -23 22 c-30 28 -32 77
-5 110 l19 24 286 3 286 3 0 74 0 75 -285 0 c-272 0 -286 1 -305 20 -28 28
-27 90 1 116 20 18 42 19 305 22 l284 3 0 74 0 75 -285 0 c-272 0 -286 1 -305
20 -26 26 -27 83 -1 109 11 11 35 23 54 26 18 4 175 5 348 3 276 -4 320 -6
368 -23 100 -35 197 -148 217 -252 l6 -33 74 0 74 0 0 658 c0 525 -3 670 -14
723 -40 185 -183 339 -365 393 -49 14 -273 16 -2295 16 -2100 -1 -2244 -2
-2291 -18z m2768 -1333 c12 -7 25 -17 29 -23 4 -6 8 -516 8 -1133 l0 -1122
-22 -15 c-31 -22 -64 -20 -88 6 -19 21 -20 34 -20 345 l0 323 -130 0 c-97 0
-139 4 -160 15 -63 33 -60 -5 -60 715 0 736 -2 711 72 795 43 49 94 80 155 94
56 13 191 13 216 0z m650 0 c12 -7 25 -17 29 -23 4 -6 8 -516 8 -1133 l0
-1122 -22 -15 c-31 -22 -64 -20 -88 6 -19 21 -20 34 -20 345 l0 323 -130 0
c-140 0 -174 9 -204 52 -23 33 -24 1297 -1 1375 27 89 115 169 212 192 56 13
191 13 216 0z"/>
<path d="M5090 7397 c-19 -12 -43 -38 -54 -57 -20 -34 -21 -50 -24 -642 l-3
-608 111 0 110 0 0 665 0 665 -54 0 c-38 0 -62 -6 -86 -23z"/>
<path d="M5740 7397 c-19 -12 -43 -38 -54 -57 -20 -34 -21 -50 -24 -642 l-3
-608 111 0 110 0 0 665 0 665 -54 0 c-38 0 -62 -6 -86 -23z"/>
<path d="M7140 7042 c0 -112 4 -192 9 -192 5 0 20 15 33 33 20 28 23 46 26
140 4 117 -4 150 -44 188 l-24 22 0 -191z"/>
<path d="M7100 5718 l0 -191 24 22 c40 38 48 71 44 188 -2 89 -7 113 -23 135
-43 58 -45 50 -45 -154z"/>
<path d="M6993 3647 c-35 -19 -262 -274 -269 -302 -9 -38 4 -89 29 -113 27
-26 88 -52 119 -52 25 1 286 214 322 263 29 39 29 115 0 154 -41 56 -145 82
-201 50z"/>
<path d="M1661 3460 c-18 -4 -45 -20 -60 -34 -24 -25 -26 -32 -26 -119 0 -62
5 -102 15 -122 l15 -30 263 -3 c144 -1 262 -5 262 -8 0 -3 -114 -140 -252
-305 -144 -171 -269 -329 -290 -367 -34 -60 -38 -75 -38 -137 0 -49 7 -84 21
-115 39 -87 -6 -80 515 -80 l462 0 31 25 c16 14 35 42 42 62 14 43 7 134 -14
186 l-16 37 -275 0 c-152 0 -276 2 -276 5 0 3 115 144 255 313 152 183 267
331 285 366 52 102 36 231 -37 309 l-27 27 -410 -1 c-226 -1 -426 -5 -445 -9z"/>
<path d="M4248 3219 c-212 -22 -372 -134 -439 -307 -27 -70 -38 -275 -20 -364
17 -81 71 -186 123 -240 116 -119 351 -168 534 -113 l45 13 -3 -115 -3 -116
-70 -19 c-91 -25 -241 -96 -319 -152 -227 -162 -376 -446 -363 -693 3 -78 9
-103 35 -156 58 -118 175 -203 338 -248 62 -17 98 -20 184 -17 99 3 112 6 182
41 181 89 294 298 342 637 28 194 36 422 36 1019 0 587 0 595 -21 639 -64 130
-330 218 -581 191z m220 -308 c22 -11 22 -16 22 -211 0 -198 0 -200 -23 -215
-37 -24 -116 -35 -170 -23 -99 21 -155 120 -145 257 8 105 55 176 136 202 36
11 152 5 180 -10z m44 -1345 c-1 -146 -75 -336 -168 -432 -63 -65 -113 -83
-166 -61 -39 16 -83 67 -93 109 -14 57 37 152 136 249 85 84 275 226 287 214
2 -2 4 -38 4 -79z"/>
<path d="M6288 3180 c-125 -21 -197 -69 -213 -138 -8 -39 10 -105 38 -138 l23
-26 64 22 c72 24 235 38 316 25 56 -8 104 -49 104 -89 0 -14 -3 -26 -7 -26
-53 -1 -351 -43 -390 -54 -86 -27 -144 -73 -178 -141 -26 -52 -30 -71 -30
-140 2 -211 141 -319 430 -332 254 -11 472 64 506 175 7 25 10 132 7 317 -3
277 -3 281 -29 335 -51 110 -123 164 -265 200 -82 21 -279 26 -376 10z m332
-684 c0 -95 6 -89 -100 -102 -108 -12 -175 27 -168 97 6 58 70 82 231 88 l37
1 0 -84z"/>
<path d="M3028 3170 c-143 -17 -214 -46 -249 -104 -33 -54 -19 -147 27 -188
18 -15 24 -15 100 7 149 43 303 42 363 -3 27 -20 48 -69 35 -82 -5 -4 -79 -15
-164 -25 -177 -18 -227 -29 -290 -60 -93 -47 -139 -118 -147 -229 -13 -175 77
-290 267 -342 98 -27 337 -24 444 5 131 35 218 101 231 175 4 19 5 155 3 303
l-3 268 -29 62 c-63 138 -194 206 -414 217 -53 2 -132 1 -174 -4z m282 -689
l0 -79 -31 -11 c-46 -16 -165 -14 -198 4 -33 17 -52 60 -40 92 17 45 87 69
217 72 l52 1 0 -79z"/>
<path d="M7405 3165 c-80 -15 -203 -67 -253 -106 -15 -11 -37 -37 -49 -57 -23
-37 -23 -42 -23 -395 0 -335 1 -360 19 -396 13 -24 32 -43 53 -52 35 -15 202
-19 251 -6 l27 7 0 356 0 355 33 14 c87 36 172 28 218 -21 l24 -26 5 -306 c4
-223 8 -313 18 -329 25 -44 68 -58 182 -58 58 0 113 4 123 7 16 7 17 34 17
366 0 274 -3 370 -14 404 -31 106 -122 190 -246 229 -87 28 -275 34 -385 14z"/>
<path d="M5015 3164 c-16 -3 -40 -7 -53 -10 l-23 -5 3 -352 c3 -340 4 -354 26
-409 31 -77 96 -147 174 -186 230 -117 672 -58 754 100 22 41 21 756 -1 798
-26 49 -67 65 -175 64 -52 0 -107 -3 -122 -7 l-28 -7 0 -355 c0 -349 0 -354
-21 -365 -39 -22 -125 -24 -174 -5 -79 30 -79 30 -85 361 -5 277 -6 294 -26
321 -11 15 -33 34 -48 41 -28 14 -149 23 -201 16z"/>
<path d="M7136 1857 c-22 -16 -18 -65 5 -80 47 -29 101 32 64 73 -21 23 -44
25 -69 7z"/>
<path d="M5320 1796 l0 -46 -51 0 c-44 0 -55 -4 -83 -32 -56 -56 -56 -156 -1
-208 34 -32 145 -41 194 -16 l31 17 -2 162 -3 162 -42 3 -43 3 0 -45z m0 -181
l0 -65 -30 0 c-33 0 -50 22 -50 69 0 36 23 61 56 61 23 0 24 -3 24 -65z"/>
<path d="M5882 1663 l3 -178 43 -3 42 -3 0 168 c0 185 -2 193 -57 193 l-33 0
2 -177z"/>
<path d="M6496 1798 c-53 -31 -76 -78 -76 -153 0 -93 48 -153 137 -170 19 -3
55 -22 79 -41 50 -38 101 -45 128 -18 29 28 20 52 -24 65 -41 12 -49 22 -29
35 20 12 49 88 49 129 0 50 -35 122 -73 149 -43 31 -141 33 -191 4z m144 -85
c43 -55 10 -163 -51 -163 -10 0 -30 11 -45 23 -22 20 -27 32 -27 70 0 63 24
97 68 97 25 0 39 -7 55 -27z"/>
<path d="M7590 1660 c0 -128 2 -142 20 -160 17 -17 31 -20 78 -18 56 3 57 4
60 35 3 29 1 32 -30 35 -32 3 -33 4 -36 56 l-3 52 35 0 c40 0 50 11 42 46 -5
20 -13 24 -41 24 -28 0 -35 4 -35 19 0 40 -11 51 -51 51 l-39 0 0 -140z"/>
<path d="M5514 1731 c-41 -25 -58 -69 -52 -133 5 -44 11 -57 42 -85 33 -31 41
-33 104 -33 78 0 106 14 100 51 -2 19 -8 23 -28 22 -80 -8 -101 -7 -116 9 -15
15 -13 17 32 23 112 16 119 19 122 49 5 41 -16 85 -49 101 -40 21 -118 19
-155 -4z m102 -55 c23 -18 19 -22 -28 -29 -42 -6 -54 13 -20 32 23 14 25 13
48 -3z"/>
<path d="M6048 1739 c-18 -10 -25 -54 -10 -63 4 -3 25 -1 46 4 39 9 86 -1 86
-18 0 -5 -23 -12 -51 -15 -88 -11 -125 -54 -99 -116 15 -38 48 -51 128 -51
103 0 112 10 112 123 -1 95 -7 114 -47 135 -27 15 -141 15 -165 1z m120 -171
c-4 -28 -39 -36 -58 -13 -12 14 -11 18 1 26 8 5 24 9 37 9 19 0 23 -5 20 -22z"/>
<path d="M6817 1743 c-4 -3 -7 -51 -7 -105 0 -97 1 -100 30 -130 30 -29 33
-30 109 -27 110 5 111 7 111 145 0 112 0 114 -24 120 -56 14 -61 7 -64 -99
l-3 -98 -32 3 -32 3 -3 85 c-2 65 -6 88 -19 98 -18 13 -55 16 -66 5z"/>
<path d="M7127 1743 c-13 -12 -8 -238 5 -251 7 -7 27 -12 45 -12 l33 0 0 129
c0 108 -3 130 -16 135 -21 8 -59 8 -67 -1z"/>
<path d="M7303 1730 l-33 -20 0 -103 c0 -114 6 -127 57 -127 l32 0 3 98 c3 96
3 97 29 100 38 4 48 -15 51 -108 l3 -85 43 -3 42 -3 0 106 c0 104 -1 107 -29
136 -27 26 -36 29 -98 29 -50 0 -77 -5 -100 -20z"/>
<path d="M7816 1731 c-12 -13 -15 -27 -11 -41 6 -18 12 -20 38 -14 38 8 83 8
97 -1 20 -13 9 -25 -22 -25 -51 0 -107 -19 -118 -40 -18 -33 -12 -79 15 -105
21 -22 33 -25 95 -25 69 0 107 11 122 34 4 6 8 48 8 94 0 79 -2 85 -29 113
-27 27 -35 29 -104 29 -60 0 -77 -4 -91 -19z m134 -160 c0 -22 -25 -34 -51
-26 -22 7 -25 31 -6 38 30 13 57 7 57 -12z"/>
</g>
</svg>
